<svg xmlns="http://www.w3.org/2000/svg" width="1600" height="1000" viewBox="0 0 1600 1000">
  <defs>
    <filter id="shadow" x="-20%" y="-20%" width="140%" height="140%">
      <feDropShadow dx="0" dy="8" stdDeviation="12" flood-color="#0f172a" flood-opacity="0.08"/>
    </filter>
    <style>
      .bg { fill:#f7f8fa; }
      .card { fill:#ffffff; stroke:#dfe3e8; stroke-width:1.2; filter:url(#shadow); }
      .cardSoft { fill:#ffffff; stroke:#e5e7eb; stroke-width:1.1; }
      .title { font-family:-apple-system,BlinkMacSystemFont,"Segoe UI",Arial,sans-serif; font-size:30px; font-weight:700; fill:#111827; }
      .h1 { font-family:-apple-system,BlinkMacSystemFont,"Segoe UI",Arial,sans-serif; font-size:26px; font-weight:700; fill:#111827; }
      .h2 { font-family:-apple-system,BlinkMacSystemFont,"Segoe UI",Arial,sans-serif; font-size:20px; font-weight:700; fill:#111827; }
      .text { font-family:-apple-system,BlinkMacSystemFont,"Segoe UI",Arial,sans-serif; font-size:16px; fill:#374151; }
      .small { font-family:-apple-system,BlinkMacSystemFont,"Segoe UI",Arial,sans-serif; font-size:13px; fill:#6b7280; }
      .mono { font-family:"SFMono-Regular","Consolas",monospace; font-size:14px; fill:#374151; }
      .muted { fill:#6b7280; }
      .line { stroke:#e5e7eb; stroke-width:1; }
      .btn { fill:#ffffff; stroke:#d1d5db; stroke-width:1.2; }
      .btnDanger { fill:#fff; stroke:#ef4444; stroke-width:1.2; }
      .dangerText { fill:#dc2626; font-family:-apple-system,BlinkMacSystemFont,"Segoe UI",Arial,sans-serif; font-size:16px; font-weight:600; }
      .greenText { fill:#15803d; font-family:-apple-system,BlinkMacSystemFont,"Segoe UI",Arial,sans-serif; font-size:14px; font-weight:700; }
      .badge { fill:#f3f4f6; stroke:#d1d5db; stroke-width:1; }
      .badgeOk { fill:#eaf7ee; stroke:#86c993; stroke-width:1; }
      .badgeWarn { fill:#fff7ed; stroke:#fdba74; stroke-width:1; }
      .badgeDanger { fill:#fef2f2; stroke:#fca5a5; stroke-width:1; }
      .selected { fill:#f0f9f2; stroke:#16a34a; stroke-width:1.6; }
      .terminal { fill:#0f171a; stroke:#111827; stroke-width:1; }
      .termText { font-family:"SFMono-Regular","Consolas",monospace; font-size:15px; fill:#e5e7eb; }
      .termGreen { font-family:"SFMono-Regular","Consolas",monospace; font-size:15px; fill:#86efac; }
    </style>
  </defs>
  <rect class="bg" width="1600" height="1000"/>
<rect x="0" y="0" width="1600" height="96" rx="0" class="cardSoft"/>
<text x="32" y="38" class="small">Archivon</text>
<text x="32" y="74" class="title">Archivon</text>
<rect x="185" y="46" width="112" height="34" rx="8" class="badgeOk"/>
<text x="241.0" y="68.0" class="greenText" text-anchor="middle" style="font-size:14px">[Version: 3.7]</text>
<rect x="1430" y="30" width="140" height="46" rx="8" class="btn"/>
<text x="1500.0" y="59.0" class="text" text-anchor="middle">Sign out</text>
<rect x="24" y="124" width="280" height="190" rx="18" class="card"/>
<text x="44" y="164" class="h2">Session</text>
<line x1="24" y1="184" x2="304" y2="184" class="line"/>
<text x="44" y="220" class="small">User</text>
<text x="44" y="244" class="text">client-alpha</text>
<text x="44" y="282" class="small">Role</text>
<text x="44" y="306" class="text">Client</text>
<rect x="24" y="340" width="280" height="610" rx="18" class="card"/>
<text x="44" y="380" class="h2">Current Access</text>
<line x1="24" y1="402" x2="304" y2="402" class="line"/>
<text x="44" y="442" class="small">Folder</text>
<text x="175" y="442" class="text">Contracts 2026</text>
<line x1="24" y1="460" x2="304" y2="460" class="line"/>
<text x="44" y="512" class="small">Status</text>
<rect x="220" y="492" width="58" height="30" rx="8" class="badgeOk"/>
<text x="249.0" y="512.0" class="greenText" text-anchor="middle" style="font-size:14px">Open</text>
<line x1="24" y1="530" x2="304" y2="530" class="line"/>
<text x="44" y="582" class="small">Remaining (TTL)</text>
<rect x="220" y="562" width="58" height="30" rx="8" class="badgeOk"/>
<text x="249.0" y="582.0" class="greenText" text-anchor="middle" style="font-size:14px">12:47</text>
<line x1="24" y1="600" x2="304" y2="600" class="line"/>
<text x="44" y="646" class="h2">WebDAV Credentials</text>
<line x1="24" y1="668" x2="304" y2="668" class="line"/>
<text x="44" y="706" class="small">Address</text>
<text x="44" y="737" class="mono">webdav://archivon.example/contracts</text>
<rect x="214" y="714" width="70" height="36" rx="8" class="btn"/>
<text x="249.0" y="738.0" class="text" text-anchor="middle">Copy</text>
<text x="44" y="798" class="small">Username</text>
<text x="44" y="829" class="mono">client.demo</text>
<rect x="214" y="806" width="70" height="36" rx="8" class="btn"/>
<text x="249.0" y="830.0" class="text" text-anchor="middle">Copy</text>
<text x="44" y="890" class="small">Password</text>
<text x="44" y="921" class="mono">••••••••</text>
<rect x="214" y="898" width="70" height="36" rx="8" class="btn"/>
<text x="249.0" y="922.0" class="text" text-anchor="middle">Copy</text>
<rect x="326" y="124" width="330" height="826" rx="18" class="card"/>
<text x="350" y="164" class="h2">Available Folders</text>
<rect x="544" y="142" width="90" height="38" rx="8" class="btn"/>
<text x="589.0" y="167.0" class="text" text-anchor="middle">Refresh</text>
<rect x="342" y="204" width="298" height="100" rx="14" class="selected"/>
<text x="402" y="244" class="h2">Contracts 2026</text>
<rect x="366" y="234" width="26" height="22" rx="4" fill="#16a34a"/>
<rect x="402" y="262" width="56" height="28" rx="8" class="badgeOk"/>
<text x="430.0" y="281.0" class="greenText" text-anchor="middle" style="font-size:14px">Open</text>
<rect x="464" y="262" width="60" height="28" rx="8" class="badgeOk"/>
<text x="494.0" y="281.0" class="greenText" text-anchor="middle" style="font-size:14px">12:47</text>
<rect x="530" y="262" width="72" height="28" rx="8" class="badge"/>
<text x="566.0" y="281.0" class="small" text-anchor="middle" style="font-size:14px">18 files</text>
<text x="606" y="260" class="h1">›</text>
<rect x="342" y="324" width="298" height="100" rx="14" class="cardSoft"/>
<text x="402" y="364" class="h2">Audit Export</text>
<text x="402" y="392" class="small">Monthly backups</text>
<rect x="366" y="354" width="26" height="22" rx="4" fill="#9ca3af"/>
<rect x="402" y="382" width="96" height="28" rx="8" class="badge"/>
<text x="450.0" y="401.0" class="small" text-anchor="middle" style="font-size:14px">files hidden</text>
<text x="606" y="380" class="h1">›</text>
<rect x="342" y="444" width="298" height="100" rx="14" class="cardSoft"/>
<text x="402" y="484" class="h2">Project Mercury</text>
<text x="402" y="512" class="small">R&amp;D material</text>
<rect x="366" y="474" width="26" height="22" rx="4" fill="#9ca3af"/>
<rect x="402" y="502" width="96" height="28" rx="8" class="badge"/>
<text x="450.0" y="521.0" class="small" text-anchor="middle" style="font-size:14px">files hidden</text>
<text x="606" y="500" class="h1">›</text>
<rect x="342" y="564" width="298" height="100" rx="14" class="cardSoft"/>
<text x="402" y="604" class="h2">Research Archive</text>
<rect x="366" y="594" width="26" height="22" rx="4" fill="#9ca3af"/>
<rect x="402" y="622" width="82" height="28" rx="8" class="badge"/>
<text x="443.0" y="641.0" class="small" text-anchor="middle" style="font-size:14px">No access</text>
<text x="606" y="620" class="h1">›</text>
<rect x="674" y="124" width="464" height="826" rx="18" class="card"/>
<text x="698" y="164" class="h2">Contracts 2026</text>
<rect x="842" y="144" width="42" height="28" rx="8" class="badge"/>
<text x="863.0" y="163.0" class="small" text-anchor="middle" style="font-size:14px">18</text>
<rect x="698" y="198" width="230" height="46" rx="10" class="btn"/>
<text x="728" y="228" class="small">Search</text>
<text x="946" y="227" class="text">Sort</text>
<rect x="986" y="198" width="126" height="46" rx="10" class="btn"/>
<text x="1010" y="228" class="text">by name</text>
<line x1="674" y1="266" x2="1138" y2="266" class="line"/>
<text x="716" y="310" class="text">▾  agreements</text>
<rect x="698" y="334" width="414" height="70" rx="10" class="selected"/>
<rect x="720" y="356" width="28" height="34" rx="4" fill="#fff" stroke="#dc2626" stroke-width="2"/>
<text x="766" y="366" class="text">msa_2026.pdf</text>
<text x="766" y="390" class="mono">7f93a1c4...e90b</text>
<text x="867" y="376" class="small">2.4 MB</text>
<rect x="942" y="354" width="78" height="34" rx="8" class="btn"/>
<text x="981.0" y="377.0" class="text" text-anchor="middle">Matched</text>
<rect x="1026" y="354" width="72" height="34" rx="8" class="btn"/>
<text x="1062.0" y="377.0" class="text" text-anchor="middle">Download</text>
<rect x="698" y="420" width="414" height="70" rx="10" class="cardSoft"/>
<rect x="720" y="442" width="28" height="34" rx="4" fill="#fff" stroke="#dc2626" stroke-width="2"/>
<text x="766" y="452" class="text">nda_partner_a.pdf</text>
<text x="766" y="476" class="mono">b1d2c3e4...7a9f</text>
<text x="867" y="462" class="small">1.1 MB</text>
<rect x="942" y="440" width="78" height="34" rx="8" class="btn"/>
<text x="981.0" y="463.0" class="text" text-anchor="middle">Verify</text>
<rect x="1026" y="440" width="72" height="34" rx="8" class="btn"/>
<text x="1062.0" y="463.0" class="text" text-anchor="middle">Download</text>
<text x="716" y="542" class="text">▾  invoices</text>
<rect x="698" y="566" width="414" height="70" rx="10" class="cardSoft"/>
<rect x="720" y="588" width="28" height="34" rx="4" fill="#fff" stroke="#16a34a" stroke-width="2"/>
<text x="766" y="598" class="text">invoice_q1.xlsx</text>
<text x="766" y="622" class="mono">c2b4d5e6...8fa1</text>
<text x="867" y="608" class="small">1.6 MB</text>
<rect x="942" y="586" width="78" height="34" rx="8" class="btn"/>
<text x="981.0" y="609.0" class="text" text-anchor="middle">Verify</text>
<rect x="1026" y="586" width="72" height="34" rx="8" class="btn"/>
<text x="1062.0" y="609.0" class="text" text-anchor="middle">Download</text>
<rect x="698" y="652" width="414" height="70" rx="10" class="cardSoft"/>
<rect x="720" y="674" width="28" height="34" rx="4" fill="#fff" stroke="#16a34a" stroke-width="2"/>
<text x="766" y="684" class="text">invoice_q2.xlsx</text>
<text x="766" y="708" class="mono">d3e4f5a6...9bc2</text>
<text x="867" y="694" class="small">1.7 MB</text>
<rect x="942" y="672" width="78" height="34" rx="8" class="btn"/>
<text x="981.0" y="695.0" class="text" text-anchor="middle">Verify</text>
<rect x="1026" y="672" width="72" height="34" rx="8" class="btn"/>
<text x="1062.0" y="695.0" class="text" text-anchor="middle">Download</text>
<rect x="698" y="764" width="414" height="70" rx="10" class="cardSoft"/>
<rect x="720" y="786" width="28" height="34" rx="4" fill="#fff" stroke="#6b7280" stroke-width="2"/>
<text x="766" y="796" class="text">summary.txt</text>
<text x="766" y="820" class="mono">a9b8c7d6...4f3e</text>
<text x="867" y="806" class="small">128 KB</text>
<rect x="942" y="784" width="78" height="34" rx="8" class="btn"/>
<text x="981.0" y="807.0" class="text" text-anchor="middle">Verify</text>
<rect x="1026" y="784" width="72" height="34" rx="8" class="btn"/>
<text x="1062.0" y="807.0" class="text" text-anchor="middle">Download</text>
<rect x="1152" y="124" width="424" height="826" rx="18" class="card"/>
<text x="1176" y="164" class="h2">Access</text>
<rect x="1176" y="196" width="64" height="32" rx="8" class="badgeOk"/>
<text x="1208.0" y="217.0" class="greenText" text-anchor="middle" style="font-size:14px">Open</text>
<text x="1430" y="220" class="small">PoW activity</text>
<text x="1490" y="246" class="text">72%</text>
<rect x="1176" y="236" width="280" height="8" rx="4" fill="#e5e7eb"/><rect x="1176" y="236" width="210" height="8" rx="4" fill="#16a34a"/>
<rect x="1176" y="286" width="360" height="48" rx="8" class="btnDanger"/>
<text x="1356.0" y="316.0" class="dangerText" text-anchor="middle">Close</text>
<rect x="1176" y="386" width="360" height="520" rx="14" class="terminal"/>
<text x="1198" y="426" class="termText">Compute node / gateway</text>
<text x="1406" y="426" class="termText">Node link:</text>
<text x="1494" y="426" class="termGreen">OK</text>
<text x="1198" y="480" class="termText">09:14:01</text>
<text x="1290" y="480" class="termText">gateway</text>
<text x="1374" y="480" class="termText">session opened</text>
<text x="1198" y="514" class="termText">09:14:05</text>
<text x="1290" y="514" class="termText">worker</text>
<text x="1374" y="514" class="termText">accepted share</text>
<text x="1198" y="548" class="termText">09:14:08</text>
<text x="1290" y="548" class="termText">gateway</text>
<text x="1374" y="548" class="termText">proof window active</text>
<text x="1198" y="582" class="termText">09:14:12</text>
<text x="1290" y="582" class="termText">gateway</text>
<text x="1374" y="582" class="termText">ttl session active</text>
<text x="1198" y="616" class="termText">09:14:20</text>
<text x="1290" y="616" class="termText">gateway</text>
<text x="1374" y="616" class="termText">checksum verification ready</text>
<text x="1198" y="674" class="termGreen">▌</text>
</svg>