<svg xmlns="http://www.w3.org/2000/svg" width="1600" height="1000" viewBox="0 0 1600 1000">
  <defs>
    <filter id="shadow" x="-20%" y="-20%" width="140%" height="140%">
      <feDropShadow dx="0" dy="8" stdDeviation="12" flood-color="#0f172a" flood-opacity="0.08"/>
    </filter>
    <style>
      .bg { fill:#f7f8fa; }
      .card { fill:#ffffff; stroke:#dfe3e8; stroke-width:1.2; filter:url(#shadow); }
      .cardSoft { fill:#ffffff; stroke:#e5e7eb; stroke-width:1.1; }
      .title { font-family:-apple-system,BlinkMacSystemFont,"Segoe UI",Arial,sans-serif; font-size:30px; font-weight:700; fill:#111827; }
      .h1 { font-family:-apple-system,BlinkMacSystemFont,"Segoe UI",Arial,sans-serif; font-size:26px; font-weight:700; fill:#111827; }
      .h2 { font-family:-apple-system,BlinkMacSystemFont,"Segoe UI",Arial,sans-serif; font-size:20px; font-weight:700; fill:#111827; }
      .text { font-family:-apple-system,BlinkMacSystemFont,"Segoe UI",Arial,sans-serif; font-size:16px; fill:#374151; }
      .small { font-family:-apple-system,BlinkMacSystemFont,"Segoe UI",Arial,sans-serif; font-size:13px; fill:#6b7280; }
      .mono { font-family:"SFMono-Regular","Consolas",monospace; font-size:14px; fill:#374151; }
      .muted { fill:#6b7280; }
      .line { stroke:#e5e7eb; stroke-width:1; }
      .btn { fill:#ffffff; stroke:#d1d5db; stroke-width:1.2; }
      .btnDanger { fill:#fff; stroke:#ef4444; stroke-width:1.2; }
      .dangerText { fill:#dc2626; font-family:-apple-system,BlinkMacSystemFont,"Segoe UI",Arial,sans-serif; font-size:16px; font-weight:600; }
      .greenText { fill:#15803d; font-family:-apple-system,BlinkMacSystemFont,"Segoe UI",Arial,sans-serif; font-size:14px; font-weight:700; }
      .badge { fill:#f3f4f6; stroke:#d1d5db; stroke-width:1; }
      .badgeOk { fill:#eaf7ee; stroke:#86c993; stroke-width:1; }
      .badgeWarn { fill:#fff7ed; stroke:#fdba74; stroke-width:1; }
      .badgeDanger { fill:#fef2f2; stroke:#fca5a5; stroke-width:1; }
      .selected { fill:#f0f9f2; stroke:#16a34a; stroke-width:1.6; }
      .terminal { fill:#0f171a; stroke:#111827; stroke-width:1; }
      .termText { font-family:"SFMono-Regular","Consolas",monospace; font-size:15px; fill:#e5e7eb; }
      .termGreen { font-family:"SFMono-Regular","Consolas",monospace; font-size:15px; fill:#86efac; }
    </style>
  </defs>
  <rect class="bg" width="1600" height="1000"/>
<rect x="0" y="0" width="1600" height="96" rx="0" class="cardSoft"/>
<text x="32" y="38" class="small">Archivon</text>
<text x="32" y="74" class="title">Archivon</text>
<rect x="1430" y="30" width="140" height="46" rx="8" class="btn"/>
<text x="1500.0" y="59.0" class="text" text-anchor="middle">Sign out</text>
<rect x="24" y="124" width="280" height="190" rx="18" class="card"/>
<text x="44" y="164" class="h2">Session</text>
<line x1="24" y1="184" x2="304" y2="184" class="line"/>
<text x="44" y="220" class="small">User</text>
<text x="44" y="244" class="text">superadmin</text>
<text x="44" y="282" class="small">Role</text>
<text x="44" y="306" class="text">Super Admin</text>
<rect x="24" y="340" width="280" height="160" rx="18" class="card"/>
<text x="44" y="380" class="h2">System</text>
<text x="44" y="424" class="small">Status</text>
<rect x="180" y="402" width="84" height="30" rx="8" class="badgeOk"/>
<text x="222.0" y="422.0" class="greenText" text-anchor="middle" style="font-size:14px">ready</text>
<text x="44" y="466" class="small">Environment</text>
<text x="180" y="466" class="text">production</text>
<rect x="24" y="524" width="280" height="180" rx="18" class="card"/>
<text x="44" y="564" class="h2">KMS</text>
<text x="44" y="608" class="small">Provider</text>
<text x="160" y="608" class="text">local</text>
<text x="44" y="650" class="small">State</text>
<rect x="180" y="628" width="84" height="30" rx="8" class="badgeOk"/>
<text x="222.0" y="648.0" class="greenText" text-anchor="middle" style="font-size:14px">available</text>
<rect x="326" y="124" width="1250" height="70" rx="14" class="card"/>
<rect x="344" y="140" width="220" height="38" rx="10" class="selected"/>
<text x="360" y="165" class="text">Storage</text>
<rect x="516" y="146" width="32" height="26" rx="8" class="badgeOk"/>
<text x="532.0" y="164.0" class="greenText" text-anchor="middle" style="font-size:14px">6</text>
<rect x="582" y="140" width="220" height="38" rx="10" class="btn"/>
<text x="598" y="165" class="text">Accounts</text>
<rect x="754" y="146" width="32" height="26" rx="8" class="badge"/>
<text x="770.0" y="164.0" class="small" text-anchor="middle" style="font-size:14px">12</text>
<rect x="820" y="140" width="220" height="38" rx="10" class="btn"/>
<text x="836" y="165" class="text">Access</text>
<rect x="992" y="146" width="32" height="26" rx="8" class="badge"/>
<text x="1008.0" y="164.0" class="small" text-anchor="middle" style="font-size:14px">3</text>
<rect x="1058" y="140" width="220" height="38" rx="10" class="btn"/>
<text x="1074" y="165" class="text">Compute</text>
<rect x="1230" y="146" width="32" height="26" rx="8" class="badge"/>
<text x="1246.0" y="164.0" class="small" text-anchor="middle" style="font-size:14px">2</text>
<rect x="1296" y="140" width="220" height="38" rx="10" class="btn"/>
<text x="1312" y="165" class="text">Audit Log</text>
<rect x="1468" y="146" width="32" height="26" rx="8" class="badge"/>
<text x="1484.0" y="164.0" class="small" text-anchor="middle" style="font-size:14px">30</text>
<rect x="326" y="218" width="330" height="732" rx="18" class="card"/>
<text x="350" y="258" class="h2">Protected Folders</text>
<rect x="544" y="236" width="90" height="38" rx="8" class="btn"/>
<text x="589.0" y="261.0" class="text" text-anchor="middle">Refresh</text>
<rect x="342" y="294" width="298" height="100" rx="14" class="selected"/>
<text x="402" y="334" class="h2">Contracts 2026</text>
<text x="402" y="362" class="small">sealed policy</text>
<rect x="366" y="324" width="26" height="22" rx="4" fill="#16a34a"/>
<rect x="402" y="352" width="56" height="28" rx="8" class="badgeOk"/>
<text x="430.0" y="371.0" class="greenText" text-anchor="middle" style="font-size:14px">Open</text>
<rect x="464" y="352" width="60" height="28" rx="8" class="badgeOk"/>
<text x="494.0" y="371.0" class="greenText" text-anchor="middle" style="font-size:14px">12:47</text>
<rect x="530" y="352" width="72" height="28" rx="8" class="badge"/>
<text x="566.0" y="371.0" class="small" text-anchor="middle" style="font-size:14px">18 files</text>
<text x="606" y="350" class="h1">›</text>
<rect x="342" y="414" width="298" height="100" rx="14" class="cardSoft"/>
<text x="402" y="454" class="h2">Audit Export</text>
<text x="402" y="482" class="small">monthly backups</text>
<rect x="366" y="444" width="26" height="22" rx="4" fill="#9ca3af"/>
<rect x="402" y="472" width="96" height="28" rx="8" class="badge"/>
<text x="450.0" y="491.0" class="small" text-anchor="middle" style="font-size:14px">files hidden</text>
<text x="606" y="470" class="h1">›</text>
<rect x="342" y="534" width="298" height="100" rx="14" class="cardSoft"/>
<text x="402" y="574" class="h2">Project Mercury</text>
<text x="402" y="602" class="small">research material</text>
<rect x="366" y="564" width="26" height="22" rx="4" fill="#9ca3af"/>
<rect x="402" y="592" width="96" height="28" rx="8" class="badge"/>
<text x="450.0" y="611.0" class="small" text-anchor="middle" style="font-size:14px">files hidden</text>
<text x="606" y="590" class="h1">›</text>
<rect x="674" y="218" width="464" height="420" rx="18" class="card"/>
<text x="698" y="258" class="h2">Files</text>
<rect x="1016" y="236" width="96" height="38" rx="8" class="btn"/>
<text x="1064.0" y="261.0" class="text" text-anchor="middle">Upload</text>
<rect x="698" y="300" width="414" height="70" rx="10" class="cardSoft"/>
<rect x="720" y="322" width="28" height="34" rx="4" fill="#fff" stroke="#dc2626" stroke-width="2"/>
<text x="766" y="332" class="text">msa_2026.pdf</text>
<text x="766" y="356" class="mono">7f93a1c4...e90b</text>
<text x="867" y="342" class="small">2.4 MB</text>
<rect x="942" y="320" width="78" height="34" rx="8" class="btn"/>
<text x="981.0" y="343.0" class="text" text-anchor="middle">Verify</text>
<rect x="1026" y="320" width="72" height="34" rx="8" class="btn"/>
<text x="1062.0" y="343.0" class="text" text-anchor="middle">Download</text>
<rect x="698" y="386" width="414" height="70" rx="10" class="cardSoft"/>
<rect x="720" y="408" width="28" height="34" rx="4" fill="#fff" stroke="#16a34a" stroke-width="2"/>
<text x="766" y="418" class="text">invoice_q1.xlsx</text>
<text x="766" y="442" class="mono">c2b4d5e6...8fa1</text>
<text x="867" y="428" class="small">1.6 MB</text>
<rect x="942" y="406" width="78" height="34" rx="8" class="btn"/>
<text x="981.0" y="429.0" class="text" text-anchor="middle">Verify</text>
<rect x="1026" y="406" width="72" height="34" rx="8" class="btn"/>
<text x="1062.0" y="429.0" class="text" text-anchor="middle">Download</text>
<rect x="698" y="472" width="414" height="70" rx="10" class="cardSoft"/>
<rect x="720" y="494" width="28" height="34" rx="4" fill="#fff" stroke="#6b7280" stroke-width="2"/>
<text x="766" y="504" class="text">summary.txt</text>
<text x="766" y="528" class="mono">a9b8c7d6...4f3e</text>
<text x="867" y="514" class="small">128 KB</text>
<rect x="942" y="492" width="78" height="34" rx="8" class="btn"/>
<text x="981.0" y="515.0" class="text" text-anchor="middle">Verify</text>
<rect x="1026" y="492" width="72" height="34" rx="8" class="btn"/>
<text x="1062.0" y="515.0" class="text" text-anchor="middle">Download</text>
<rect x="674" y="662" width="464" height="288" rx="18" class="card"/>
<text x="698" y="704" class="h2">Folder Policy</text>
<rect x="698" y="736" width="96" height="70" rx="12" class="cardSoft"/>
<text x="710" y="764" class="small">TH/s</text>
<text x="710" y="794" class="text">14.00</text>
<rect x="803" y="736" width="96" height="70" rx="12" class="cardSoft"/>
<text x="815" y="764" class="small">Pass</text>
<text x="815" y="794" class="text">&gt;= 12.60 TH/s</text>
<rect x="908" y="736" width="96" height="70" rx="12" class="cardSoft"/>
<text x="920" y="764" class="small">Window</text>
<text x="920" y="794" class="text">60 sec</text>
<rect x="1013" y="736" width="96" height="70" rx="12" class="cardSoft"/>
<text x="1025" y="764" class="small">Attempts</text>
<text x="1025" y="794" class="text">3</text>
<rect x="698" y="840" width="80" height="30" rx="8" class="badgeDanger"/>
<text x="738.0" y="860.0" class="dangerText" text-anchor="middle" style="font-size:14px">sealed</text>
<rect x="788" y="840" width="120" height="30" rx="8" class="badgeWarn"/>
<text x="848.0" y="860.0" class="small" text-anchor="middle" style="font-size:14px">immutable</text>
<rect x="1152" y="218" width="424" height="732" rx="18" class="card"/>
<text x="1176" y="258" class="h2">Client Permissions</text>
<rect x="1176" y="308" width="360" height="62" rx="10" class="cardSoft"/>
<text x="1198" y="346" class="text">client-beta</text>
<rect x="1430" y="324" width="78" height="30" rx="8" class="badgeOk"/>
<text x="1469.0" y="344.0" class="greenText" text-anchor="middle" style="font-size:14px">OK</text>
<rect x="1176" y="384" width="360" height="62" rx="10" class="cardSoft"/>
<text x="1198" y="422" class="text">nikolay</text>
<rect x="1430" y="400" width="78" height="30" rx="8" class="badgeOk"/>
<text x="1469.0" y="420.0" class="greenText" text-anchor="middle" style="font-size:14px">OK</text>
<rect x="1176" y="460" width="360" height="62" rx="10" class="cardSoft"/>
<text x="1198" y="498" class="text">evgeny</text>
<rect x="1430" y="476" width="78" height="30" rx="8" class="badge"/>
<text x="1469.0" y="496.0" class="small" text-anchor="middle" style="font-size:14px">none</text>
<rect x="1176" y="536" width="360" height="62" rx="10" class="cardSoft"/>
<text x="1198" y="574" class="text">client.test</text>
<rect x="1430" y="552" width="78" height="30" rx="8" class="badge"/>
<text x="1469.0" y="572.0" class="small" text-anchor="middle" style="font-size:14px">none</text>
<text x="1176" y="650" class="h2">Admin WebDAV</text>
<rect x="1176" y="680" width="180" height="42" rx="8" class="btn"/>
<text x="1266.0" y="707.0" class="text" text-anchor="middle">Create access</text>
</svg>