<svg xmlns="http://www.w3.org/2000/svg" width="1600" height="1000" viewBox="0 0 1600 1000">
  <defs>
    <filter id="shadow" x="-20%" y="-20%" width="140%" height="140%">
      <feDropShadow dx="0" dy="8" stdDeviation="12" flood-color="#0f172a" flood-opacity="0.08"/>
    </filter>
    <style>
      .bg { fill:#f7f8fa; }
      .card { fill:#ffffff; stroke:#dfe3e8; stroke-width:1.2; filter:url(#shadow); }
      .cardSoft { fill:#ffffff; stroke:#e5e7eb; stroke-width:1.1; }
      .title { font-family:-apple-system,BlinkMacSystemFont,"Segoe UI",Arial,sans-serif; font-size:30px; font-weight:700; fill:#111827; }
      .h1 { font-family:-apple-system,BlinkMacSystemFont,"Segoe UI",Arial,sans-serif; font-size:26px; font-weight:700; fill:#111827; }
      .h2 { font-family:-apple-system,BlinkMacSystemFont,"Segoe UI",Arial,sans-serif; font-size:20px; font-weight:700; fill:#111827; }
      .text { font-family:-apple-system,BlinkMacSystemFont,"Segoe UI",Arial,sans-serif; font-size:16px; fill:#374151; }
      .small { font-family:-apple-system,BlinkMacSystemFont,"Segoe UI",Arial,sans-serif; font-size:13px; fill:#6b7280; }
      .mono { font-family:"SFMono-Regular","Consolas",monospace; font-size:14px; fill:#374151; }
      .muted { fill:#6b7280; }
      .line { stroke:#e5e7eb; stroke-width:1; }
      .btn { fill:#ffffff; stroke:#d1d5db; stroke-width:1.2; }
      .btnDanger { fill:#fff; stroke:#ef4444; stroke-width:1.2; }
      .dangerText { fill:#dc2626; font-family:-apple-system,BlinkMacSystemFont,"Segoe UI",Arial,sans-serif; font-size:16px; font-weight:600; }
      .greenText { fill:#15803d; font-family:-apple-system,BlinkMacSystemFont,"Segoe UI",Arial,sans-serif; font-size:14px; font-weight:700; }
      .badge { fill:#f3f4f6; stroke:#d1d5db; stroke-width:1; }
      .badgeOk { fill:#eaf7ee; stroke:#86c993; stroke-width:1; }
      .badgeWarn { fill:#fff7ed; stroke:#fdba74; stroke-width:1; }
      .badgeDanger { fill:#fef2f2; stroke:#fca5a5; stroke-width:1; }
      .selected { fill:#f0f9f2; stroke:#16a34a; stroke-width:1.6; }
      .terminal { fill:#0f171a; stroke:#111827; stroke-width:1; }
      .termText { font-family:"SFMono-Regular","Consolas",monospace; font-size:15px; fill:#e5e7eb; }
      .termGreen { font-family:"SFMono-Regular","Consolas",monospace; font-size:15px; fill:#86efac; }
    </style>
  </defs>
  <rect class="bg" width="1600" height="1000"/>
<rect x="0" y="0" width="1600" height="96" rx="0" class="cardSoft"/>
<text x="32" y="38" class="small">Archivon</text>
<text x="32" y="74" class="title">Archivon</text>
<rect x="1430" y="30" width="140" height="46" rx="8" class="btn"/>
<text x="1500.0" y="59.0" class="text" text-anchor="middle">Sign out</text>
<rect x="24" y="124" width="280" height="190" rx="18" class="card"/>
<text x="44" y="164" class="h2">Session</text>
<line x1="24" y1="184" x2="304" y2="184" class="line"/>
<text x="44" y="220" class="small">User</text>
<text x="44" y="244" class="text">superadmin</text>
<text x="44" y="282" class="small">Role</text>
<text x="44" y="306" class="text">Super Admin</text>
<rect x="24" y="340" width="280" height="160" rx="18" class="card"/>
<text x="44" y="380" class="h2">System</text>
<text x="44" y="424" class="small">Status</text>
<rect x="180" y="402" width="84" height="30" rx="8" class="badgeOk"/>
<text x="222.0" y="422.0" class="greenText" text-anchor="middle" style="font-size:14px">ready</text>
<text x="44" y="466" class="small">Environment</text>
<text x="180" y="466" class="text">production</text>
<rect x="24" y="524" width="280" height="180" rx="18" class="card"/>
<text x="44" y="564" class="h2">KMS</text>
<text x="44" y="608" class="small">Provider</text>
<text x="160" y="608" class="text">local</text>
<text x="44" y="650" class="small">State</text>
<rect x="180" y="628" width="84" height="30" rx="8" class="badgeOk"/>
<text x="222.0" y="648.0" class="greenText" text-anchor="middle" style="font-size:14px">available</text>
<rect x="326" y="124" width="1250" height="70" rx="14" class="card"/>
<rect x="344" y="140" width="220" height="38" rx="10" class="btn"/>
<text x="360" y="165" class="text">Storage</text>
<rect x="516" y="146" width="32" height="26" rx="8" class="badge"/>
<text x="532.0" y="164.0" class="small" text-anchor="middle" style="font-size:14px">6</text>
<rect x="582" y="140" width="220" height="38" rx="10" class="btn"/>
<text x="598" y="165" class="text">Accounts</text>
<rect x="754" y="146" width="32" height="26" rx="8" class="badge"/>
<text x="770.0" y="164.0" class="small" text-anchor="middle" style="font-size:14px">12</text>
<rect x="820" y="140" width="220" height="38" rx="10" class="selected"/>
<text x="836" y="165" class="text">Access</text>
<rect x="992" y="146" width="32" height="26" rx="8" class="badgeOk"/>
<text x="1008.0" y="164.0" class="greenText" text-anchor="middle" style="font-size:14px">3</text>
<rect x="1058" y="140" width="220" height="38" rx="10" class="btn"/>
<text x="1074" y="165" class="text">Compute</text>
<rect x="1230" y="146" width="32" height="26" rx="8" class="badge"/>
<text x="1246.0" y="164.0" class="small" text-anchor="middle" style="font-size:14px">2</text>
<rect x="1296" y="140" width="220" height="38" rx="10" class="btn"/>
<text x="1312" y="165" class="text">Audit Log</text>
<rect x="1468" y="146" width="32" height="26" rx="8" class="badge"/>
<text x="1484.0" y="164.0" class="small" text-anchor="middle" style="font-size:14px">30</text>
<rect x="326" y="218" width="600" height="732" rx="18" class="card"/>
<text x="350" y="258" class="h2">PoW Template</text>
<rect x="806" y="236" width="90" height="38" rx="8" class="btn"/>
<text x="851.0" y="261.0" class="text" text-anchor="middle">Refresh</text>
<rect x="350" y="302" width="104" height="76" rx="12" class="cardSoft"/>
<text x="362" y="332" class="small">Hashrate</text>
<text x="362" y="362" class="text">14 TH/s</text>
<rect x="462" y="302" width="104" height="76" rx="12" class="cardSoft"/>
<text x="474" y="332" class="small">Pass</text>
<text x="474" y="362" class="text">&gt;= 12.6 TH/s</text>
<rect x="574" y="302" width="104" height="76" rx="12" class="cardSoft"/>
<text x="586" y="332" class="small">Work/Attempt</text>
<text x="586" y="362" class="text">756 TH</text>
<rect x="686" y="302" width="104" height="76" rx="12" class="cardSoft"/>
<text x="698" y="332" class="small">Event</text>
<text x="698" y="362" class="text">8 sec</text>
<rect x="798" y="302" width="104" height="76" rx="12" class="cardSoft"/>
<text x="810" y="332" class="small">TTL</text>
<text x="810" y="362" class="text">30 min</text>
<text x="350" y="430" class="small">TH/s</text>
<rect x="350" y="444" width="220" height="46" rx="10" class="btn"/>
<text x="366" y="475" class="text">14</text>
<text x="610" y="430" class="small">Tolerance, %</text>
<rect x="610" y="444" width="220" height="46" rx="10" class="btn"/>
<text x="626" y="475" class="text">10</text>
<text x="350" y="522" class="small">Window</text>
<rect x="350" y="536" width="220" height="46" rx="10" class="btn"/>
<text x="366" y="567" class="text">60 sec</text>
<text x="610" y="522" class="small">Attempts</text>
<rect x="610" y="536" width="220" height="46" rx="10" class="btn"/>
<text x="626" y="567" class="text">3</text>
<text x="350" y="614" class="small">Job timeout</text>
<rect x="350" y="628" width="220" height="46" rx="10" class="btn"/>
<text x="366" y="659" class="text">15 min</text>
<text x="610" y="614" class="small">Access TTL</text>
<rect x="610" y="628" width="220" height="46" rx="10" class="btn"/>
<text x="626" y="659" class="text">30 min</text>
<rect x="350" y="760" width="220" height="44" rx="8" class="btn"/>
<text x="460.0" y="788.0" class="text" text-anchor="middle">Save PoW settings</text>
<rect x="952" y="218" width="624" height="350" rx="18" class="card"/>
<text x="976" y="258" class="h2">Queue</text>
<rect x="976" y="304" width="560" height="58" rx="10" class="cardSoft"/>
<text x="996" y="328" class="mono">pow-job-001</text>
<text x="996" y="350" class="small">Contracts 2026</text>
<rect x="1400" y="320" width="104" height="28" rx="8" class="badgeWarn"/>
<text x="1452.0" y="339.0" class="small" text-anchor="middle" style="font-size:14px">running</text>
<rect x="976" y="376" width="560" height="58" rx="10" class="cardSoft"/>
<text x="996" y="400" class="mono">pow-job-002</text>
<text x="996" y="422" class="small">Audit Export</text>
<rect x="1400" y="392" width="104" height="28" rx="8" class="badgeWarn"/>
<text x="1452.0" y="411.0" class="small" text-anchor="middle" style="font-size:14px">queued</text>
<rect x="976" y="448" width="560" height="58" rx="10" class="cardSoft"/>
<text x="996" y="472" class="mono">pow-job-003</text>
<text x="996" y="494" class="small">Project Mercury</text>
<rect x="1400" y="464" width="104" height="28" rx="8" class="badgeOk"/>
<text x="1452.0" y="483.0" class="greenText" text-anchor="middle" style="font-size:14px">succeeded</text>
<rect x="952" y="592" width="624" height="358" rx="18" class="card"/>
<text x="976" y="632" class="h2">Active Sessions</text>
<rect x="976" y="680" width="560" height="70" rx="10" class="cardSoft"/>
<text x="996" y="710" class="h2">client-alpha</text>
<text x="996" y="734" class="small">Contracts 2026</text>
<rect x="1320" y="700" width="70" height="30" rx="8" class="badgeOk"/>
<text x="1355.0" y="720.0" class="greenText" text-anchor="middle" style="font-size:14px">12:47</text>
<rect x="1410" y="696" width="92" height="38" rx="8" class="btnDanger"/>
<text x="1456.0" y="721.0" class="dangerText" text-anchor="middle">Close</text>
<rect x="976" y="768" width="560" height="70" rx="10" class="cardSoft"/>
<text x="996" y="798" class="h2">client-beta</text>
<text x="996" y="822" class="small">Audit Export</text>
<rect x="1320" y="788" width="70" height="30" rx="8" class="badgeOk"/>
<text x="1355.0" y="808.0" class="greenText" text-anchor="middle" style="font-size:14px">26:10</text>
<rect x="1410" y="784" width="92" height="38" rx="8" class="btnDanger"/>
<text x="1456.0" y="809.0" class="dangerText" text-anchor="middle">Close</text>
</svg>